<svg xmlns="http://www.w3.org/2000/svg" xmlns:xlink="http://www.w3.org/1999/xlink"> 
	<symbol viewBox="0 0 512 512" id="user">
		<path d="M437.02,330.98c-27.883-27.882-61.071-48.523-97.281-61.018C378.521,243.251,404,198.548,404,148
			C404,66.393,337.607,0,256,0S108,66.393,108,148c0,50.548,25.479,95.251,64.262,121.962
			c-36.21,12.495-69.398,33.136-97.281,61.018C26.629,379.333,0,443.62,0,512h40c0-119.103,96.897-216,216-216s216,96.897,216,216
			h40C512,443.62,485.371,379.333,437.02,330.98z M256,256c-59.551,0-108-48.448-108-108S196.449,40,256,40
			c59.551,0,108,48.448,108,108S315.551,256,256,256z"/>
	</symbol>
	<symbol  viewBox="0 0 551.132 551.132" id="group">
		<path d="m525.97 357.643c-46.33-26.637-99.039-41.794-153.635-45.853 11.183 5.004 22.433 9.894 33.024 15.982 12.314 7.087 22.187 17.315 29.448 29.181 25.95 7.207 50.903 17.275 74.023 30.56 4.844 2.792 7.855 8.393 7.855 14.633v80.093h-68.891v34.446h86.114c9.52 0 17.223-7.703 17.223-17.223v-97.316c.001-18.551-9.653-35.605-25.161-44.503z"/><path d="m388.187 357.643c-108.416-62.332-254.608-62.332-363.026 0-15.524 8.931-25.161 25.969-25.161 44.504v97.316c0 9.52 7.703 17.223 17.223 17.223h378.902c9.52 0 17.223-7.703 17.223-17.223v-97.333c0-18.518-9.637-35.556-25.161-44.487zm-9.284 124.597h-344.456v-80.093c0-6.24 3.011-11.841 7.871-14.633 98.022-56.344 230.692-56.344 328.714 0 4.861 2.792 7.871 8.393 7.871 14.616z"/><path d="m335.881 69.701c2.857-.299 5.687-.809 8.578-.809 47.481 0 86.114 38.634 86.114 86.114s-38.634 86.114-86.114 86.114c-2.889 0-5.719-.513-8.576-.812-7.308 11.035-16.254 20.732-26.065 29.549 11.216 3.454 22.79 5.708 34.641 5.708 66.469 0 120.56-54.09 120.56-120.56s-54.09-120.56-120.56-120.56c-11.853 0-23.427 2.254-34.643 5.708 9.811 8.819 18.757 18.513 26.065 29.548z"/><path d="m206.676 275.566c66.469 0 120.56-54.09 120.56-120.56s-54.09-120.56-120.56-120.56-120.56 54.09-120.56 120.56 54.091 120.56 120.56 120.56zm0-206.674c47.481 0 86.114 38.634 86.114 86.114s-38.634 86.114-86.114 86.114-86.114-38.634-86.114-86.114 38.634-86.114 86.114-86.114z"/>
	</symbol>
	<symbol viewBox="-21 -47 682.66669 682" id="comment">
		<path d="m552.011719-1.332031h-464.023438c-48.515625 0-87.988281 39.464843-87.988281 87.988281v283.972656c0 48.414063 39.300781 87.816406 87.675781 87.988282v128.863281l185.191407-128.863281h279.144531c48.515625 0 87.988281-39.472657 87.988281-87.988282v-283.972656c0-48.523438-39.472656-87.988281-87.988281-87.988281zm50.488281 371.960937c0 27.835938-22.648438 50.488282-50.488281 50.488282h-290.910157l-135.925781 94.585937v-94.585937h-37.1875c-27.839843 0-50.488281-22.652344-50.488281-50.488282v-283.972656c0-27.84375 22.648438-50.488281 50.488281-50.488281h464.023438c27.839843 0 50.488281 22.644531 50.488281 50.488281zm0 0"/><path d="m171.292969 131.171875h297.414062v37.5h-297.414062zm0 0"/><path d="m171.292969 211.171875h297.414062v37.5h-297.414062zm0 0"/><path d="m171.292969 291.171875h297.414062v37.5h-297.414062zm0 0"/>
	</symbol>
	<symbol viewBox="0 0 512 512" id="support">
		<path d="m255.107 65.06c5.562 0 10.071-4.509 10.071-10.071v-44.918c0-5.562-4.509-10.071-10.071-10.071s-10.071 4.509-10.071 10.071v44.918c.001 5.562 4.51 10.071 10.071 10.071z"/><path d="m501.28 345.985-17.791-17.741c-6.329-6.321-14.764-9.803-23.752-9.803-5.747 0-11.264 1.43-16.153 4.109l-33.526-33.486 1.633-1.631c13.601-13.628 13.596-35.773-.001-49.355-4.859-4.868-10.922-8.114-17.531-9.48.91-3.141 1.389-6.431 1.389-9.798 0-9.355-3.634-18.127-10.212-24.678-4.86-4.868-10.922-8.114-17.531-9.48.91-3.141 1.389-6.43 1.389-9.798 0-9.356-3.634-18.127-10.223-24.688-4.976-4.97-11.093-8.116-17.516-9.455 3.436-11.847.5-25.176-8.82-34.512-7.758-7.725-18.285-11.045-28.43-9.969l-66.435-12.575c-10.132-1.922-22.785-3.193-30.772 4.092-.504.46-1.018.989-1.524 1.578-12.384-4.514-26.828-1.826-36.745 8.08-6.579 6.571-10.203 15.339-10.203 24.689 0 3.368.477 6.657 1.386 9.799-6.602 1.365-12.657 4.607-17.5 9.459-6.592 6.565-10.227 15.323-10.234 24.662-.003 3.376.476 6.676 1.39 9.826-6.605 1.362-12.664 4.598-17.522 9.45-6.592 6.585-10.222 15.358-10.222 24.703 0 7.158 2.137 13.977 6.097 19.737-5 1.695-9.58 4.516-13.415 8.347-13.61 13.593-13.615 35.739.009 49.387l1.627 1.62-33.53 33.469c-12.461-5.867-27.814-3.669-38.097 6.601l-17.802 17.752c-6.332 6.324-9.818 14.76-9.819 23.753 0 8.994 3.487 17.431 9.819 23.756l22.217 22.19c3.935 3.931 10.312 3.927 14.242-.008 3.931-3.935 3.927-10.312-.008-14.242l-22.217-22.19c-2.522-2.519-3.911-5.895-3.911-9.505 0-3.609 1.389-6.984 3.905-9.497l17.803-17.753c4.448-4.443 11.256-5.105 16.426-2.014.364.547.785 1.067 1.267 1.55.863.865 1.848 1.528 2.894 2.013l102.093 101.943c.485 1.057 1.151 2.052 2.02 2.922.846.847 1.811 1.502 2.835 1.984 2.159 2.441 3.352 5.559 3.352 8.885 0 3.61-1.389 6.985-3.911 9.504l-17.785 17.764c-5.255 5.232-13.803 5.231-19.042.016l-22.217-22.219c-3.933-3.933-10.309-3.933-14.242 0s-3.933 10.309 0 14.242l22.233 22.235c6.544 6.517 15.138 9.774 23.736 9.774 8.6 0 17.204-3.262 23.756-9.785l17.796-17.775c6.332-6.325 9.819-14.761 9.819-23.756 0-6.419-1.785-12.549-5.104-17.835l37.736-37.69c.04-.041.08-.082.121-.123 4.321-4.467 16.354-3.631 27.991-2.823 8.268.575 17.486 1.214 26.492.176l41.324 41.275c-2.677 4.881-4.106 10.391-4.106 16.129 0 8.985 3.487 17.416 9.819 23.741l17.797 17.775c6.328 6.321 14.763 9.803 23.751 9.803 8.987 0 17.422-3.481 23.751-9.803l107.941-107.81c6.332-6.324 9.819-14.76 9.819-23.754-.001-8.993-3.488-17.429-9.826-23.759zm-267.26-242.55 43.687 8.269-26.149 26.139c-4.045-1.944-9.589-5.57-15.671-11.388-8.325-7.964-14.28-17.159-14.822-22.894-.001-.003-.001-.006-.001-.009 0-.001-.001-.002-.001-.003-.039-.412-.049-.741-.044-.992 1.317-.32 4.815-.675 13.001.878zm-51.058 8.211c5.102-5.097 13.028-5.685 18.793-1.781 3.267 13.698 14.952 26.113 20.209 31.143 3.896 3.728 16.397 14.905 29.015 17.977 1.707 2.447 2.636 5.364 2.636 8.442 0 3.965-1.525 7.672-4.304 10.448-2.771 2.776-6.484 4.304-10.456 4.304-3.973 0-7.686-1.528-10.47-4.317l-.001-.001-.005-.005-45.418-45.336c-2.769-2.765-4.294-6.472-4.294-10.436.001-3.965 1.526-7.672 4.295-10.438zm-26.316 43.947c2.771-2.775 6.48-4.304 10.446-4.304 3.971 0 7.692 1.532 10.481 4.318l36.572 36.499c5.759 5.768 5.759 15.154.02 20.902-2.786 2.775-6.512 4.303-10.491 4.303s-7.705-1.528-10.479-4.291l-.001-.001-27.745-27.739c-.043-.043-.09-.083-.134-.127l-8.68-8.676c-2.785-2.782-4.318-6.496-4.315-10.458.004-3.949 1.532-7.644 4.326-10.426zm-26.366 43.938c2.773-2.769 6.49-4.294 10.468-4.294 3.945 0 7.63 1.503 10.391 4.224l27.83 27.817c2.775 2.764 4.304 6.467 4.304 10.427 0 3.959-1.529 7.662-4.315 10.437-2.772 2.768-6.485 4.293-10.456 4.293-3.977 0-7.702-1.529-10.478-4.293l-10.089-10.077c-.002-.003-.005-.005-.007-.007l-17.647-17.626c-2.782-2.779-4.314-6.491-4.314-10.451 0-3.959 1.532-7.672 4.313-10.45zm-17.54 52.786c2.785-2.782 6.507-4.314 10.48-4.314 3.972 0 7.693 1.531 10.477 4.311l10.103 10.091c2.776 2.764 4.304 6.467 4.304 10.427s-1.529 7.662-4.325 10.448c-2.771 2.775-6.484 4.304-10.456 4.304-3.973 0-7.686-1.528-10.477-4.324l-1.265-1.26c-.017-.017-.03-.035-.046-.051-.019-.018-.039-.034-.058-.052l-8.727-8.693c-5.759-5.771-5.764-15.14-.01-20.887zm205.234 114.458c-3.931-3.936-10.308-3.939-14.242-.009l-8.96 8.949c-8.514 8.514-23.941 7.442-38.86 6.407-16.201-1.126-32.954-2.288-43.795 8.842l-37.095 37.05-92.763-92.627 32.828-32.769c5.426 3.326 11.687 5.109 18.238 5.109 9.359 0 18.135-3.628 24.69-10.195 6.599-6.572 10.234-15.343 10.234-24.699 0-.087-.006-.173-.006-.26.087.001.174.006.261.006 9.346 0 18.115-3.617 24.679-10.173 6.599-6.572 10.234-15.344 10.234-24.699 0-.087-.006-.173-.006-.26.088 0 .176.006.265.006 9.343 0 18.117-3.613 24.725-10.194 6.86-6.871 10.253-15.917 10.188-24.944.09.001.18.006.27.006 9.359-.001 18.134-3.628 24.699-10.205 6.579-6.571 10.203-15.339 10.203-24.689 0-6.539-1.778-12.79-5.093-18.205l28.773-28.761c2.144-2.135 4.788-3.475 7.559-4.028.3-.032.596-.08.889-.138 4.446-.613 9.115.759 12.515 4.145 5.759 5.769 5.759 15.155.021 20.903l-8.763 8.727c-.029.029-.06.055-.089.084l-10.093 10.076c-3.936 3.93-3.94 10.307-.009 14.242 3.932 3.936 10.308 3.939 14.242.009l8.798-8.786c.002-.002.004-.004.006-.006l1.33-1.325c5.775-5.722 15.131-5.71 20.9.051 2.776 2.764 4.305 6.467 4.305 10.427 0 3.959-1.529 7.662-4.327 10.448l-8.813 8.831c-.001.001-.002.002-.003.004l-10.092 10.051c-3.941 3.925-3.954 10.302-.029 14.242 3.925 3.941 10.301 3.953 14.242.029l10.138-10.097c2.771-2.776 6.484-4.304 10.456-4.304 3.973 0 7.687 1.528 10.478 4.324 2.776 2.765 4.304 6.468 4.304 10.428 0 3.959-1.528 7.662-4.32 10.442l-17.57 17.577c-3.932 3.934-3.931 10.31.002 14.242 1.967 1.966 4.543 2.948 7.12 2.948 2.578 0 5.156-.984 7.122-2.951l8.611-8.614c.049-.047.102-.088.151-.137 2.771-2.776 6.484-4.304 10.456-4.304 3.973 0 7.686 1.528 10.467 4.314 5.753 5.747 5.748 15.117 0 20.875l-8.755 8.745c-.003.003-.007.006-.01.009s-.006.007-.009.01l-13.896 13.879c-3.935 3.931-3.939 10.308-.009 14.243 1.967 1.969 4.547 2.954 7.126 2.954 2.575 0 5.151-.982 7.117-2.945l6.797-6.789 32.577 32.539-92.755 92.642-33.234-33.194c2.317-1.49 4.534-3.242 6.615-5.323l8.955-8.944c3.937-3.929 3.941-10.306.01-14.241zm169.078 12.472-107.941 107.81c-2.525 2.522-5.905 3.911-9.517 3.911s-6.992-1.389-9.518-3.912l-17.797-17.775c-2.522-2.518-3.911-5.888-3.911-9.489 0-3.6 1.389-6.97 3.911-9.489l107.941-107.81c2.526-2.523 5.905-3.912 9.518-3.912 3.612 0 6.992 1.389 9.524 3.918l17.791 17.741c2.522 2.519 3.911 5.893 3.911 9.503-.001 3.611-1.39 6.986-3.912 9.504z"/><path d="m121.378 56.57c1.966 1.962 4.54 2.942 7.114 2.942 2.58 0 5.161-.986 7.128-2.957 3.929-3.937 3.923-10.313-.014-14.242l-36.698-36.625c-3.936-3.929-10.313-3.924-14.242.014-3.929 3.937-3.923 10.313.014 14.242z"/><path d="m381.722 59.512c2.575 0 5.151-.982 7.117-2.945l36.67-36.626c3.935-3.93 3.939-10.307.008-14.242-3.93-3.935-10.306-3.939-14.242-.008l-36.67 36.626c-3.935 3.93-3.939 10.307-.008 14.242 1.967 1.969 4.546 2.953 7.125 2.953z"/><path d="m62.819 433.204c-3.899 3.966-3.845 10.343.122 14.242l.029.028c1.957 1.924 4.498 2.882 7.038 2.882 2.607 0 5.214-1.009 7.189-3.018 3.899-3.966 3.83-10.357-.136-14.256-3.965-3.899-10.341-3.844-14.242.122z"/><path d="m342.606 352.267c1.532 0 3.086-.349 4.545-1.084 4.966-2.505 6.961-8.561 4.457-13.527-2.505-4.966-8.562-6.962-13.527-4.457l-.056.028c-4.966 2.505-6.933 8.547-4.429 13.513 1.768 3.508 5.324 5.527 9.01 5.527z"/>
	</symbol>
	<symbol viewBox="0 0 512 512" id="music">
		<path d="m506.617 3.489c-3.411-2.85-7.909-4.041-12.285-3.25l-332 60c-7.139 1.291-12.332 7.506-12.332 14.761v279.98c-15.935-14.28-36.969-22.98-60-22.98-49.626 0-90 40.374-90 90s40.374 90 90 90 90-40.374 90-90v-224.468l302-54.578v167.027c-15.935-14.281-36.969-22.981-60-22.981-49.626 0-90 40.374-90 90s40.374 90 90 90 90-40.374 90-90v-362c0-4.445-1.971-8.661-5.383-11.511zm-416.617 478.511c-33.084 0-60-26.916-60-60s26.916-60 60-60 60 26.916 60 60-26.916 60-60 60zm90-314.953v-79.514l302-54.579v79.514zm242 269.953c-33.084 0-60-26.916-60-60s26.916-60 60-60 60 26.916 60 60-26.916 60-60 60z"/>
	</symbol>
	<symbol viewBox="0 0 512 512" id="bell">
		<path d="m450.201 407.453c-1.505-.977-12.832-8.912-24.174-32.917-20.829-44.082-25.201-106.18-25.201-150.511 0-.193-.004-.384-.011-.576-.227-58.589-35.31-109.095-85.514-131.756v-34.657c0-31.45-25.544-57.036-56.942-57.036h-4.719c-31.398 0-56.942 25.586-56.942 57.036v34.655c-50.372 22.734-85.525 73.498-85.525 132.334 0 44.331-4.372 106.428-25.201 150.511-11.341 24.004-22.668 31.939-24.174 32.917-6.342 2.935-9.469 9.715-8.01 16.586 1.473 6.939 7.959 11.723 15.042 11.723h109.947c.614 42.141 35.008 76.238 77.223 76.238s76.609-34.097 77.223-76.238h109.947c7.082 0 13.569-4.784 15.042-11.723 1.457-6.871-1.669-13.652-8.011-16.586zm-223.502-350.417c0-14.881 12.086-26.987 26.942-26.987h4.719c14.856 0 26.942 12.106 26.942 26.987v24.917c-9.468-1.957-19.269-2.987-29.306-2.987-10.034 0-19.832 1.029-29.296 2.984v-24.914zm29.301 424.915c-25.673 0-46.614-20.617-47.223-46.188h94.445c-.608 25.57-21.549 46.188-47.222 46.188zm60.4-76.239c-.003 0-213.385 0-213.385 0 2.595-4.044 5.236-8.623 7.861-13.798 20.104-39.643 30.298-96.129 30.298-167.889 0-63.417 51.509-115.01 114.821-115.01s114.821 51.593 114.821 115.06c0 .185.003.369.01.553.057 71.472 10.25 127.755 30.298 167.286 2.625 5.176 5.267 9.754 7.861 13.798z"/>
	</symbol>
	<symbol viewBox="0 0 512 512" id="checked">
		<g>
			<g>
				<path d="M497.36,69.995c-7.532-7.545-19.753-7.558-27.285-0.032L238.582,300.845l-83.522-90.713
				c-7.217-7.834-19.419-8.342-27.266-1.126c-7.841,7.217-8.343,19.425-1.126,27.266l97.126,105.481
				c3.557,3.866,8.535,6.111,13.784,6.22c0.141,0.006,0.277,0.006,0.412,0.006c5.101,0,10.008-2.026,13.623-5.628L497.322,97.286
				C504.873,89.761,504.886,77.54,497.36,69.995z"/>
			</g>
		</g>
		<g>
			<g>
				<path d="M492.703,236.703c-10.658,0-19.296,8.638-19.296,19.297c0,119.883-97.524,217.407-217.407,217.407
				c-119.876,0-217.407-97.524-217.407-217.407c0-119.876,97.531-217.407,217.407-217.407c10.658,0,19.297-8.638,19.297-19.296
				C275.297,8.638,266.658,0,256,0C114.84,0,0,114.84,0,256c0,141.154,114.84,256,256,256c141.154,0,256-114.846,256-256
				C512,245.342,503.362,236.703,492.703,236.703z"/>
			</g>
		</g>
	</symbol>
	<symbol viewBox="0 0 510 510" id="newsfeed">
		<path d="M435 60V0H45v480h60v30h360V60zM75 450V30h330v30H105v390zm360 30H135V90h300z"/><path d="M405 120H165v90h240zm-30 60H195v-30h180zm-90 270h120v-90H285zm30-60h60v30h-60zm-150 30h90v30h-90zm0-60h90v30h-90zm0-60h90v30h-90zm0-60h90v30h-90zm120 0h120v30H285zm0 60h120v30H285z"/>
	</symbol>
</svg>